Coordinates
version=1
nRows=17
nColumns=24
inDegrees=yes

Units are S.I. units (second, meters, Newtons, ...)
Angles are in degrees.

endheader
time	pelvis_tilt	pelvis_list	pelvis_rotation	pelvis_tx	pelvis_ty	pelvis_tz	hip_flexion_r	hip_adduction_r	hip_rotation_r	knee_angle_r	ankle_angle_r	subtalar_angle_r	mtp_angle_r	hip_flexion_l	hip_adduction_l	hip_rotation_l	knee_angle_l	ankle_angle_l	subtalar_angle_l	mtp_angle_l	lumbar_extension	lumbar_bending	lumbar_rotation
      1.58000000	     -9.91756450	     -2.59232901	     17.49715512	      0.45357282	      1.01287827	      1.43482624	     34.36162353	     -7.33123584	    -18.41275622	    -10.32501735	      8.90156744	      6.97556989	    -45.86427319	     -5.18785582	     -7.59833124	      5.81783314	    -10.77280567	      1.23574670	     26.68023857	    -39.52636331	     -2.88453595	      1.69112382	    -14.78236191
      1.59000000	     -9.88209839	     -2.64447378	     17.96337211	      0.45451763	      1.01142867	      1.43524863	     34.31256032	     -7.30912293	    -17.60251829	    -10.82967171	      8.45995473	      6.25856722	    -45.24192369	     -5.60013184	     -7.95663942	      6.73899928	    -11.21440072	      0.90391590	     26.27183363	    -40.15353076	     -2.82970898	      1.84825545	    -15.09811022
      1.60000000	     -9.77342399	     -2.71972788	     18.39851571	      0.45574507	      1.01009934	      1.43574771	     34.18777463	     -7.20415175	    -16.86832702	    -11.59642992	      7.63819077	      5.42479393	    -44.72715035	     -6.04408680	     -8.35658899	      7.62524385	    -11.71442418	      0.36995317	     25.76285936	    -40.68890006	     -2.82105850	      2.05478054	    -15.39635562
      1.61000000	     -9.64011959	     -2.85445103	     18.74318504	      0.45724794	      1.00884399	      1.43638766	     34.06411752	     -6.96592010	    -16.21233810	    -12.58427512	      6.58769771	      4.58251854	    -44.36259332	     -6.48580746	     -8.80519592	      8.49994620	    -12.23830350	     -0.32916962	     25.11484226	    -41.05735269	     -2.79517162	      2.33232550	    -15.59079915
      1.62000000	     -9.55349727	     -3.00913920	     19.06035940	      0.45887845	      1.00764720	      1.43710246	     33.99498137	     -6.68682348	    -15.64217848	    -13.73500863	      5.48806055	      3.68467392	    -43.75766617	     -6.76027892	     -9.21636053	      9.47776097	    -12.95374902	     -1.09087527	     24.26304828	    -41.54220738	     -2.69968295	      2.61016421	    -15.78432189
      1.63000000	     -9.45300557	     -3.20237178	     19.26147615	      0.46073779	      1.00661509	      1.43792680	     33.93224789	     -6.32761857	    -15.34506489	    -15.01468576	      4.13440333	      3.31918634	    -40.78217862	     -7.01285877	     -9.62784492	     10.41851757	    -13.70505703	     -1.97042748	     23.29890799	    -43.62249880	     -2.58808426	      2.93608847	    -15.85598826
      1.64000000	     -9.39615213	     -3.42902025	     19.35153623	      0.46265849	      1.00575786	      1.43891147	     33.90998930	     -5.86807790	    -14.99938012	    -16.31907290	      3.28205686	      2.68680725	    -40.73499263	     -7.09068188	     -9.99729412	     11.28931423	    -14.64946248	     -3.21217774	     22.31324695	    -43.82849624	     -2.42629574	      3.27507785	    -15.83345679
      1.65000000	     -9.33480642	     -3.68451505	     19.34001832	      0.46465783	      1.00517512	      1.44000062	     33.86762534	     -5.35063650	    -14.84136400	    -17.64847199	      2.70815127	      2.35123752	    -40.55049676	     -7.05520803	    -10.32330314	     12.13222650	    -15.75866864	     -4.68252938	     21.14310149	    -44.03729527	     -2.26632762	      3.64635539	    -15.73950081
      1.66000000	     -9.26524841	     -3.98202968	     19.23324389	      0.46669251	      1.00490991	      1.44121095	     33.76781440	     -4.75299597	    -14.80154587	    -18.92541581	      2.48346233	      2.27494947	    -40.19583485	     -6.88762910	    -10.61837311	     12.94490947	    -17.04485600	     -6.37386213	     19.84764845	    -44.26840111	     -2.11487556	      4.05962443	    -15.59023618
      1.67000000	     -9.19001339	     -4.26310870	     18.99657468	      0.46871073	      1.00498157	      1.44254802	     33.61232924	     -4.12751941	    -14.84547954	    -20.16138531	      2.59121622	      2.41930211	    -39.81702528	     -6.58365429	    -10.82455484	     13.57976868	    -18.53263188	     -8.34843292	     18.59870575	    -44.46290514	     -2.00206905	      4.45426489	    -15.33092104
      1.68000000	     -9.09128714	     -4.53834942	     18.66647672	      0.47068839	      1.00542239	      1.44399634	     33.32664535	     -3.45646464	    -14.92351274	    -21.24584490	      3.00597478	      2.72443003	    -39.47564024	     -6.14239378	    -10.96870087	     14.07126723	    -20.21786473	    -10.53851616	     17.41123818	    -44.59498249	     -1.94184724	      4.84337563	    -15.01182299
      1.69000000	     -8.96442346	     -4.78582729	     18.26183829	      0.47259655	      1.00623443	      1.44555624	     32.87282967	     -2.74654442	    -14.94975643	    -22.10814611	      3.60374264	      3.05989392	    -39.27877650	     -5.56908302	    -11.05479238	     14.36993117	    -22.06786596	    -12.92125497	     16.45847865	    -44.69088354	     -1.94881849	      5.19789731	    -14.65631546
      1.70000000	     -8.80370082	     -4.99212424	     17.81278297	      0.47443011	      1.00739792	      1.44714245	     32.24783749	     -2.04970299	    -15.02395529	    -22.77611669	      4.38209467	      3.54325396	    -39.09982154	     -4.91559654	    -11.04967747	     14.66542293	    -24.01572855	    -15.25608871	     15.46722707	    -44.72170735	     -2.02374857	      5.50878112	    -14.27219381
      1.71000000	     -8.60480061	     -5.14085266	     17.35660984	      0.47616664	      1.00888836	      1.44871941	     31.42535110	     -1.38578511	    -15.11540418	    -23.20173009	      5.22793757	      4.11608287	    -38.95024608	     -4.17777855	    -10.96237328	     14.91063313	    -26.04854294	    -17.41348946	     14.65346635	    -44.68343368	     -2.16982603	      5.75812418	    -13.89378352
      1.72000000	     -8.36900718	     -5.21545138	     16.94134575	      0.47779846	      1.01065819	      1.45020006	     30.40406611	     -0.82063374	    -15.33734460	    -23.39863115	      6.05911073	      4.98315725	    -37.99431254	     -3.38169095	    -10.77039322	     15.21419894	    -28.12449812	    -19.43258265	     14.11505043	    -40.64712374	     -2.37879704	      5.92852424	    -13.55174953
      1.73000000	     -8.13854145	     -5.21227860	     16.53476398	      0.47928315	      1.01266859	      1.45168590	     29.23210591	     -0.28101471	    -15.38883195	    -23.30547818	      6.80864570	      5.54076022	    -37.98857501	     -2.46945698	    -10.49381257	     15.40706967	    -30.22145871	    -20.78190577	     13.83989107	    -40.62527176	     -2.61203879	      5.99395064	    -13.21789905
      1.74000000	     -7.88645377	     -5.13301228	     16.20920071	      0.48062328	      1.01486870	      1.45303904	     27.92290325	      0.14161975	    -15.53979736	    -23.04793384	      7.55087042	      6.29629691	    -38.03055902	     -1.49348505	    -10.12056315	     15.67576738	    -32.30606009	    -21.51709297	     13.82609701	    -40.36923179	     -2.88290807	      5.97214055	    -12.95981536
